<svg xmlns="http://www.w3.org/2000/svg" viewBox="0 0 2031.17 1536.04"><defs><style>.cls-1{fill:#3245ce;}.cls-2{fill:#1a30a0;}.cls-3{fill:#5871ed;}</style></defs><g id="objects"><path class="cls-1" d="M1133.05,190.15,456.33,309.47a74.09,74.09,0,0,0-61.21,72.95v809a289.7,289.7,0,0,0-100.48-17.6c-129.48,0-234.45,81.83-234.45,182.78s105,182.77,234.45,182.77,234.45-81.83,234.45-182.77V662.19L1086,564v482a289.7,289.7,0,0,0-100.48-17.6c-129.48,0-234.45,81.83-234.45,182.77s105,182.78,234.45,182.78S1220,1312.11,1220,1211.16V263.1A74.08,74.08,0,0,0,1133.05,190.15Z" transform="translate(-60.19 -189)"/><path class="cls-2" d="M1220,263.09v948.08c0,100.94-105,182.76-234.44,182.76-68.9,0-130.86-23.17-173.75-60,37.81,20.39,83.69,32.33,133.16,32.33,129.48,0,234.45-81.82,234.45-182.76V235.37A73.6,73.6,0,0,0,1165,191.49,74.11,74.11,0,0,1,1220,263.09Z" transform="translate(-60.19 -189)"/><path class="cls-2" d="M1085.88,527.3,1086,564,529.09,662.19v694.42c0,101-105,182.78-234.44,182.78-68.9,0-130.86-23.17-173.75-60.06,37.81,20.4,83.69,32.34,133.16,32.34,129.48,0,234.45-81.83,234.45-182.78V634.47Z" transform="translate(-60.19 -189)"/><path class="cls-3" d="M264.5,1199.22c-36.91,5.8-139.22,32-181.76,146.58-4.76,12.83,12.56,22,20.36,10.75,32.51-46.8,86.77-103.57,165.28-119.21a11.55,11.55,0,0,0,9.21-11.16l.25-15.3A11.58,11.58,0,0,0,264.5,1199.22Z" transform="translate(-60.19 -189)"/><path class="cls-3" d="M961.32,1054c-36.91,5.8-139.22,32-181.76,146.58-4.76,12.83,12.56,22,20.37,10.75,32.5-46.8,86.77-103.57,165.27-119.21a11.54,11.54,0,0,0,9.21-11.16l.26-15.3A11.59,11.59,0,0,0,961.32,1054Z" transform="translate(-60.19 -189)"/><path class="cls-3" d="M438.46,401l2.05,174.8S485,385.05,627.43,324l-147.5,26.73A50.48,50.48,0,0,0,438.46,401Z" transform="translate(-60.19 -189)"/><path class="cls-1" d="M2064.62,1172.4c-3.74,12.2-15.47,18.16-25.27,12.82-8-4.39-12.1-15-9.68-25.28,12.18-51.59,38.58-204.36-51.74-285.37-66.85-60-178.27-88.92-255.12-102.39v770.09c0,100.94-105,182.77-234.45,182.77-47.25,0-94.93-11-136.35-34.07a222.54,222.54,0,0,1-35.37-24.27l-2-1.72c-37.72-32.43-60.71-75.48-60.71-122.71,0-100.94,105-182.77,234.45-182.77a289.56,289.56,0,0,1,100.47,17.6V498.86a67,67,0,1,1,134,0c0,66.82,32.54,129.65,87.56,167.55C1946.46,760.16,2168.29,833.12,2064.62,1172.4Z" transform="translate(-60.19 -189)"/><path class="cls-2" d="M2029.67,1159.94c12.18-51.59,38.58-204.36-51.74-285.37-66.85-60-178.27-88.92-255.12-102.39v770.09c0,100.94-105,182.77-234.45,182.77-47.25,0-94.93-11-136.35-34.07a222.54,222.54,0,0,1-35.37-24.27l-2-1.72c37.82,20.4,83.7,32.35,133.16,32.35,129.48,0,234.45-81.83,234.45-182.79V437.29a67,67,0,0,1,40.58,61.57v114a152.42,152.42,0,0,0,115.48,147.89l1.94.48C1949.58,787.91,2135.2,916.52,2029.67,1159.94Z" transform="translate(-60.19 -189)"/><path class="cls-3" d="M1458.22,1384.87c-36.91,5.8-139.22,32-181.76,146.58-4.76,12.83,12.56,22,20.36,10.75,32.51-46.8,86.77-103.57,165.28-119.21a11.55,11.55,0,0,0,9.21-11.16l.25-15.3A11.58,11.58,0,0,0,1458.22,1384.87Z" transform="translate(-60.19 -189)"/></g></svg>